<?xml version="1.0" encoding="UTF-8"?><svg id="Layer_2" xmlns="http://www.w3.org/2000/svg" viewBox="0 0 90 90"><g id="Layer_1-2"><path d="M90,73.51c0,9.12-7.33,16.49-16.36,16.49H16.36c-9.03,0-16.36-7.37-16.36-16.49V16.48C0,7.38,7.33,0,16.36,0h57.27c9.03,0,16.36,7.38,16.36,16.48v57.03Z" fill="#f1f1f1"/><path d="M66.51,25.5c-4.03-1.84-8.31-3.19-12.78-3.94-.56.97-1.19,2.28-1.63,3.31-4.75-.69-9.47-.69-14.16,0-.44-1.03-1.09-2.34-1.63-3.31-4.5.75-8.78,2.09-12.79,3.94-8.1,11.94-10.28,23.6-9.19,35.1,5.38,3.91,10.56,6.28,15.66,7.85,1.25-1.69,2.38-3.5,3.34-5.41-1.84-.69-3.59-1.53-5.28-2.53.44-.31.88-.66,1.28-1,10.19,4.66,21.23,4.66,31.29,0,.44.34.84.69,1.28,1-1.69,1-3.44,1.84-5.28,2.53.97,1.91,2.09,3.72,3.34,5.41,5.09-1.56,10.31-3.94,15.66-7.85,1.34-13.32-2.13-24.88-9.13-35.1ZM34.75,53.5c-3.06,0-5.56-2.78-5.56-6.19s2.44-6.19,5.56-6.19,5.63,2.78,5.56,6.19c0,3.41-2.47,6.19-5.56,6.19ZM55.29,53.5c-3.06,0-5.57-2.78-5.57-6.19s2.44-6.19,5.57-6.19,5.63,2.78,5.56,6.19c0,3.41-2.44,6.19-5.56,6.19Z" fill="#5865f2"/></g></svg>