<?xml version="1.0" encoding="UTF-8"?><svg id="Layer_2" xmlns="http://www.w3.org/2000/svg" viewBox="0 0 90 90"><g id="Layer_1-2"><path d="M4.97,0h80.06c2.74,0,4.97,2.23,4.97,4.97v80.06c0,2.74-2.23,4.97-4.97,4.97H4.97c-2.74,0-4.97-2.23-4.97-4.97V4.97C0,2.23,2.23,0,4.97,0Z" fill="#f1f1f1"/><path d="M62.01,89.76v-34.67h11.64l1.74-13.51h-13.38v-8.62c0-3.91,1.09-6.58,6.69-6.58h7.16v-12.09c-1.24-.16-5.49-.53-10.43-.53-10.31,0-17.37,6.29-17.37,17.86v9.96h-11.67v13.51h11.67v34.67h13.95Z" fill="#3d5a98"/></g></svg>