<?xml version="1.0" encoding="UTF-8"?><svg id="Layer_2" xmlns="http://www.w3.org/2000/svg" viewBox="0 0 90 90"><g id="Layer_1-2"><path d="M73.64,0H16.36C7.32,0,0,7.39,0,16.48v57.03c0,9.11,7.32,16.48,16.36,16.48h57.28c9.04,0,16.36-7.38,16.36-16.48V16.48c0-9.1-7.32-16.48-16.36-16.48ZM64.2,66.51c-3.22,2.99-7.25,5.04-11.53,6.03-4.71,1.09-9.71,1.12-14.39-.14-3.73-1-7.21-2.8-10.23-5.2-3.18-2.55-5.8-5.81-7.64-9.47-2.82-5.6-3.68-12.17-2.44-18.32.5-2.49,1.32-4.87,2.46-7.12,3.09,2.41,6.15,4.8,9.23,7.21h0c-1.22,3.55-1.2,7.5,0,11.05,0-.01-.02-.03-.02-.04-3.08,2.42-6.14,4.82-9.21,7.21,1.83,3.65,4.45,6.92,7.62,9.45,3.02,2.43,6.5,4.2,10.23,5.2,4.68,1.26,9.68,1.23,14.39.14,4.27-.99,8.3-3.03,11.52-6.02h0c.85-.78,1.64-1.63,2.37-2.53-.72.91-1.52,1.76-2.37,2.55Z" fill="#f2f2f2"/><path d="M66.6,63.85c-.72.9-1.52,1.75-2.37,2.53-3.22,2.97-7.26,5.01-11.54,5.99-4.72,1.08-9.72,1.11-14.41-.14-3.73-.99-7.22-2.78-10.24-5.17-3.18-2.53-5.81-5.77-7.65-9.41-2.82-5.57-3.68-12.09-2.44-18.21.5-2.47,1.32-4.84,2.46-7.08,3.09,2.4,6.16,4.77,9.24,7.17h0c-1.22,3.53-1.2,7.45,0,10.98-.01-.01-.02-.03-.02-.04-3.08,2.4-6.15,4.79-9.22,7.17,1.83,3.63,4.46,6.88,7.63,9.39,3.02,2.41,6.51,4.17,10.24,5.17,4.69,1.25,9.69,1.22,14.41.14,4.28-.98,8.31-3.01,11.53-5.98h.01c.85-.78,1.64-1.62,2.37-2.51Z" fill="#f8bb15"/><path d="M29.64,39.53c-3.08-2.4-6.15-4.77-9.24-7.17,3.26-6.51,9.1-11.64,15.96-13.99.74-.25,1.5-.48,2.26-.67.76-.19,1.53-.35,2.3-.48,4.81-.8,9.82-.36,14.41,1.33,2.94,1.09,5.68,2.72,8.07,4.72,0,0,.01,0,.01.01.33.29.67.58.99.89h.01c-.22.23-.44.47-.67.69h0c-.69.71-1.4,1.39-2.08,2.09-1.72,1.72-3.45,3.45-5.18,5.17-1.7-1.63-3.8-2.89-6.07-3.57-2.66-.8-5.54-.91-8.27-.33-3.19.68-6.14,2.34-8.42,4.68-1.61,1.63-2.88,3.59-3.74,5.71-.12.3-.23.61-.34.92Z" fill="#fff"/><path d="M72.43,49.1c-.04.38-.09.76-.14,1.13-.09.75-.22,1.5-.39,2.24-.15.74-.33,1.47-.55,2.2-.08.28-.16.55-.25.83-.09.27-.19.55-.28.82-.98,2.72-2.41,5.29-4.23,7.53-.73.89-1.52,1.73-2.37,2.51h-.01c-3.22,2.97-7.25,5-11.53,5.98-4.72,1.08-9.72,1.11-14.41-.14-3.73-1-7.22-2.76-10.24-5.17-3.17-2.51-5.8-5.76-7.63-9.39,3.07-2.38,6.14-4.77,9.22-7.17,0,.01.01.03.02.04.15.43.31.86.49,1.28.26.62.57,1.22.9,1.81.55.96,1.19,1.87,1.93,2.7.31.37.65.73,1,1.07.65.65,1.36,1.25,2.12,1.78,1.88,1.33,4.02,2.26,6.28,2.71,2.2.44,4.51.39,6.72.02,2.21-.4,4.34-1.19,6.2-2.45,0,0,.01,0,.01,0,2.95-1.99,5.04-5.19,5.63-8.7h-15.36v-11h26.51c.54,3.09.67,6.26.36,9.38Z" fill="#fff"/><path d="M64.42,24.16h0s-.01.01-.01.01c-.22.23-.44.46-.66.69h0c-.69.7-1.4,1.37-2.08,2.07-1.72,1.73-3.45,3.46-5.18,5.18-1.7-1.64-3.8-2.88-6.07-3.58-2.66-.8-5.54-.92-8.27-.33-3.18.68-6.14,2.35-8.42,4.68-1.61,1.63-2.88,3.59-3.74,5.73-.12.3-.23.61-.34.92-3.08-2.4-6.15-4.77-9.24-7.17,3.26-6.51,9.1-11.64,15.96-13.99.74-.25,1.5-.48,2.26-.67.76-.19,1.53-.35,2.3-.48,4.81-.8,9.83-.36,14.41,1.32,2.95,1.08,5.67,2.71,8.07,4.73,0,0,.01,0,.01.01.34.28.67.58,1,.88Z" fill="#ea4435"/><path d="M72.43,49.1c-.04.38-.09.76-.14,1.13-.1.75-.23,1.5-.39,2.24s-.34,1.47-.55,2.2c-.08.28-.16.55-.25.83-.09.27-.19.55-.28.82-.98,2.72-2.41,5.29-4.23,7.53-.73.89-1.52,1.73-2.37,2.51h-.01c-2.97-2.32-5.94-4.62-8.92-6.94h-.01c2.95-1.99,5.02-5.19,5.62-8.7v-.02h-15.35c0-3.66,0-7.32,0-10.98h0s26.51-.01,26.51-.01h0c.54,3.1.67,6.27.36,9.39Z" fill="#547ebe"/><path d="M64.23,66.35h-.01c-3.22,2.98-7.25,5.01-11.53,5.99-4.72,1.08-9.72,1.11-14.41-.14-3.73-1-7.22-2.76-10.24-5.17-3.17-2.51-5.8-5.76-7.63-9.39,3.07-2.38,6.14-4.77,9.22-7.17,0,.01.01.03.02.04.14.43.31.86.49,1.28.26.62.57,1.22.9,1.81.56.96,1.2,1.86,1.93,2.7.31.37.65.73,1,1.07.65.64,1.36,1.23,2.11,1.75,1.88,1.32,4.03,2.26,6.27,2.71,2.21.45,4.5.4,6.72.02,2.22-.39,4.35-1.2,6.21-2.45l.02.02,8.93,6.93Z" fill="#34a852"/></g></svg>