<?xml version="1.0" encoding="UTF-8"?><svg id="Layer_2" xmlns="http://www.w3.org/2000/svg" viewBox="0 0 90 90"><g id="Layer_1-2"><path d="M90,73.52c0,9.11-7.33,16.48-16.36,16.48H16.37c-9.04,0-16.37-7.38-16.37-16.48V16.49C0,7.39,7.33,0,16.37,0h57.27c9.03,0,16.36,7.39,16.36,16.49v57.02Z" fill="#e74437"/><path d="M52.06,41.73h-7.4s0,0,0,.01h-12.6v8.08h11.42c-.02,1.34-.52,2.45-1.37,3.48-2.39,2.9-6.02,4.75-10.07,4.75-7.21,0-13.05-5.84-13.05-13.05s5.84-13.05,13.05-13.05c3.21,0,6.13,1.16,8.41,3.08l5.57-5.87c-3.73-3.3-8.62-5.3-13.98-5.3-11.68,0-21.14,9.46-21.14,21.13s9.46,21.14,21.14,21.14c4.07,0,7.87-1.16,11.1-3.16,6.02-3.72,9.16-10.39,9.16-17.99,0-1.11-.09-2.2-.25-3.27" fill="#fff"/><polygon points="79.09 41.22 70.58 41.22 70.58 32.7 64.84 32.7 64.84 41.22 56.34 41.22 56.34 46.95 64.84 46.95 64.84 55.46 70.58 55.46 70.58 46.95 79.09 46.95 79.09 41.22" fill="#fff"/></g></svg>