<?xml version="1.0" encoding="UTF-8"?><svg id="Layer_2" xmlns="http://www.w3.org/2000/svg" viewBox="0 0 90 90"><g id="Layer_1-2"><path d="M90,73.51c0,9.12-7.33,16.49-16.36,16.49H16.36c-9.03,0-16.36-7.37-16.36-16.49V16.48C0,7.38,7.33,0,16.36,0h57.27c9.03,0,16.36,7.38,16.36,16.48v57.03Z"/><path d="M58.92,12.06h-27.94c-10.54,0-19.07,8.54-19.07,19.07v27.94c0,10.53,8.54,19.07,19.07,19.07h27.94c10.54,0,19.07-8.53,19.07-19.07v-27.94c0-10.53-8.54-19.07-19.07-19.07M71.91,59.56c0,6.99-5.67,12.66-12.66,12.66h-28.59c-6.99,0-12.66-5.68-12.66-12.66v-28.59c0-6.99,5.68-12.66,12.66-12.66h28.59c6.99,0,12.66,5.67,12.66,12.66v28.59Z" fill="#fff"/><path d="M44.95,28.12c-9.47,0-17.14,7.68-17.14,17.15s7.67,17.15,17.14,17.15,17.15-7.68,17.15-17.15-7.68-17.15-17.15-17.15M44.95,56.38c-6.14,0-11.11-4.97-11.11-11.11s4.97-11.12,11.11-11.12,11.11,4.98,11.11,11.12-4.98,11.11-11.11,11.11" fill="#fff"/><path d="M62.67,23.48c-2.2,0-3.99,1.78-3.99,3.99s1.79,3.99,3.99,3.99,4-1.78,4-3.99-1.79-3.99-4-3.99" fill="#fff"/></g></svg>