<?xml version="1.0" encoding="UTF-8"?><svg id="Layer_2" xmlns="http://www.w3.org/2000/svg" viewBox="0 0 66.08 66.08"><g id="Layer_1-2"><path d="M47.01,0h-27.94C8.54,0,0,8.54,0,19.07v27.94c0,10.53,8.54,19.07,19.07,19.07h27.94c10.54,0,19.07-8.53,19.07-19.07v-27.94c0-10.53-8.54-19.07-19.07-19.07M60,47.5c0,6.99-5.67,12.66-12.66,12.66h-28.59c-6.99,0-12.66-5.68-12.66-12.66v-28.59c0-6.99,5.68-12.66,12.66-12.66h28.59c6.99,0,12.66,5.67,12.66,12.66v28.59Z"/><path d="M33.04,16.06c-9.47,0-17.14,7.68-17.14,17.15s7.67,17.15,17.14,17.15,17.15-7.68,17.15-17.15-7.68-17.15-17.15-17.15M33.04,44.32c-6.14,0-11.11-4.97-11.11-11.11s4.97-11.12,11.11-11.12,11.11,4.98,11.11,11.12-4.98,11.11-11.11,11.11"/><path d="M50.76,11.41c-2.2,0-3.99,1.78-3.99,3.99s1.79,3.99,3.99,3.99,4-1.78,4-3.99-1.79-3.99-4-3.99"/></g></svg>