<?xml version="1.0" encoding="UTF-8"?><svg id="Layer_2" xmlns="http://www.w3.org/2000/svg" xmlns:xlink="http://www.w3.org/1999/xlink" viewBox="0 0 90 90"><defs><linearGradient id="linear-gradient" x1="44.34" y1="3.66" x2="45.59" y2="82.11" gradientUnits="userSpaceOnUse"><stop offset="0" stop-color="#f9de4a"/><stop offset="1" stop-color="#f2c543"/></linearGradient></defs><g id="Layer_1-2"><path d="M90,73.51c0,9.12-7.33,16.49-16.36,16.49H16.36c-9.03,0-16.36-7.37-16.36-16.49V16.48C0,7.38,7.33,0,16.36,0h57.27c9.03,0,16.36,7.38,16.36,16.48v57.03Z" fill="url(#linear-gradient)"/><path d="M59.93,20.09h-24.09c-1.63,0-2.94,1.3-2.94,2.91v23.9c0,1.61,1.31,2.91,2.94,2.91h11.1c-.08,2.83-1.27,5.92-2.99,8.67-1.93,3.09-6.06,6.51-6.09,6.54-.32.31-.56.66-.57,1.16,0,.39.2.68.41.98l7.74,8.69s.38.4.69.46c.35.09.74.09,1.02-.12,13.41-10.3,15.35-23.24,15.69-30.23v-22.97c0-1.61-1.32-2.91-2.93-2.91" fill="#fff"/></g></svg>