<?xml version="1.0" encoding="UTF-8"?><svg id="Layer_2" xmlns="http://www.w3.org/2000/svg" viewBox="0 0 90 90"><g id="Layer_1-2"><path d="M90,73.51c0,9.12-7.33,16.49-16.36,16.49H16.36c-9.03,0-16.36-7.37-16.36-16.49V16.48C0,7.38,7.33,0,16.36,0h57.27c9.03,0,16.36,7.38,16.36,16.48v57.03Z" fill="#ffe600"/><path d="M45.93,14.39c-19.07,0-34.53,12.21-34.53,27.27,0,9.68,6.41,18.17,16.02,23.03l-3.25,12.14c-.12.37-.02.77.24,1.04.19.19.44.29.71.29.21,0,.42-.09.6-.23l13.99-9.45c2.03.29,4.1.45,6.22.45,19.06,0,34.53-12.21,34.53-27.27s-15.47-27.27-34.53-27.27" fill="#392020"/><path d="M23.52,37.34h-3.76c-.52,0-.97-.13-1.33-.36-.37-.23-.6-.57-.69-1.01-.02-.12-.04-.25-.06-.39,0-.55.2-.98.59-1.28.39-.31.88-.47,1.48-.47h11.49c.52,0,.96.12,1.33.36.37.23.6.57.7,1.01.02.12.03.25.03.38,0,.56-.19.99-.58,1.3-.38.29-.87.45-1.47.45h-3.76v12.95c-.01.62-.19,1.13-.55,1.5-.35.38-.85.56-1.45.56-.5,0-.92-.14-1.27-.4-.35-.28-.57-.66-.67-1.13-.03-.17-.04-.35-.03-.53v-12.95Z" fill="#ffe600"/><path d="M34.26,34.79c.16-.45.4-.78.72-.97.31-.19.72-.29,1.22-.29h.95c.52,0,.95.11,1.3.32.35.21.63.61.82,1.2l4.8,13.91c.16.43.26.8.32,1.11.04.2.06.37.07.48,0,.51-.19.93-.56,1.28-.37.36-.81.53-1.32.53-.92,0-1.52-.37-1.78-1.13l-1.03-3.03h-6.4l-1.03,3.03c-.25.76-.84,1.13-1.78,1.13-.47,0-.86-.12-1.17-.36-.31-.24-.52-.59-.61-1.03-.03-.13-.04-.27-.04-.42-.01-.2.02-.45.11-.73.07-.28.17-.58.27-.85l5.14-14.16ZM36.66,38.02h-.05l-2.34,7.3h4.65l-2.26-7.3Z" fill="#ffe600"/><path d="M45.09,35.59c0-.62.18-1.12.54-1.5.36-.38.85-.57,1.46-.57.5,0,.93.14,1.27.42.34.27.57.65.67,1.12.03.17.04.34.03.53v12.96s6.64,0,6.64,0c.53,0,.99.11,1.35.35.36.24.59.58.67,1.01.03.11.05.25.06.38,0,.55-.19.98-.59,1.28-.39.3-.88.46-1.48.46h-8.29c-.62,0-1.12-.12-1.49-.38-.39-.24-.63-.66-.75-1.23-.05-.24-.08-.51-.09-.81v-14.01Z" fill="#ffe600"/><path d="M58.17,35.59c0-.62.18-1.12.54-1.5.36-.38.85-.57,1.46-.57.5,0,.93.14,1.27.42.35.27.57.65.67,1.12.03.17.05.34.04.53v6.02s6.26-7.18,6.26-7.18c.28-.31.53-.53.76-.69.23-.15.5-.22.83-.22.44,0,.84.12,1.19.37.36.24.58.56.66.97,0,.02.01.07.03.15,0,.06,0,.13.01.17,0,.29-.07.54-.18.76-.12.22-.28.44-.48.66l-4.08,4.46,4.83,7.65.14.23c.33.52.52.9.58,1.16,0,.01.01.06.03.12,0,.07,0,.11,0,.13,0,.71-.2,1.22-.6,1.53-.4.31-.89.46-1.45.46-.4,0-.73-.06-.99-.21-.26-.16-.52-.44-.78-.86l-4.58-7.38-2.18,2.28.02,4.12c0,.62-.19,1.13-.55,1.5-.36.38-.85.56-1.46.56-.5,0-.93-.14-1.27-.4-.35-.28-.57-.66-.67-1.13-.03-.17-.04-.35-.04-.53v-14.7Z" fill="#ffe600"/></g></svg>