<?xml version="1.0" encoding="UTF-8"?><svg id="Layer_2" xmlns="http://www.w3.org/2000/svg" viewBox="0 0 90 90"><g id="Layer_1-2"><path d="M90,73.51c0,9.12-7.33,16.49-16.36,16.49H16.36c-9.03,0-16.36-7.37-16.36-16.49V16.48C0,7.38,7.33,0,16.36,0h57.27c9.03,0,16.36,7.38,16.36,16.48v57.03Z" fill="#ffe600"/><path d="M45,14.1c-19.25,0-34.85,12.32-34.85,27.53,0,9.77,6.47,18.34,16.17,23.24l-3.28,12.25c-.12.37-.02.78.25,1.05.19.19.44.29.71.29.21,0,.42-.09.61-.23l14.12-9.53c2.05.3,4.14.46,6.27.46,19.24,0,34.85-12.32,34.85-27.52s-15.61-27.53-34.85-27.53" fill="#392020"/></g></svg>