<?xml version="1.0" encoding="UTF-8"?><svg id="Layer_2" xmlns="http://www.w3.org/2000/svg" viewBox="0 0 59.29 75"><g id="Layer_1-2"><path d="M29.65,15.77c-2.35,0-4.66.28-6.92.82v-5.23C22.73,5.09,17.63,0,11.36,0S0,5.09,0,11.35v33.77s.01.09.01.13c0,.04-.01.09-.01.13,0,16.33,13.3,29.62,29.65,29.62s29.65-13.29,29.65-29.62-13.3-29.62-29.65-29.62ZM29.74,38.23c3.98,0,7.21,3.23,7.21,7.2s-3.23,7.2-7.21,7.2-7.21-3.23-7.21-7.2,3.23-7.2,7.21-7.2ZM29.65,70.14c-13.66,0-24.77-11.1-24.77-24.75,0-.04-.01-.09-.01-.13,0-.04.01-.09.01-.13V11.35c0-3.58,2.91-6.49,6.49-6.49s6.49,2.91,6.49,6.49v32.27h0v1.82h0c0,6.54,5.34,11.86,11.89,11.86s11.89-5.33,11.89-11.88-5.33-11.88-11.89-11.88c-2.63,0-5.05.87-7.02,2.31v-4.78c2.15-1.04,4.51-1.58,6.92-1.58,8.77,0,15.9,7.13,15.9,15.89s-7.13,15.89-15.9,15.89-15.9-7.13-15.9-15.89V11.36c0-1.34-1.09-2.43-2.44-2.43s-2.44,1.09-2.44,2.43v35.44c0,.23.04.46.11.67,1.05,10.47,9.92,18.67,20.67,18.67,11.46,0,20.78-9.31,20.78-20.76s-9.32-20.76-20.78-20.76c-2.37,0-4.71.41-6.92,1.19v-4.2c2.24-.65,4.56-.98,6.92-.98,13.66,0,24.77,11.1,24.77,24.75s-11.11,24.75-24.77,24.75Z" fill="#21c531"/></g></svg>