<?xml version="1.0" encoding="UTF-8"?><svg id="Layer_2" xmlns="http://www.w3.org/2000/svg" viewBox="0 0 90 90"><g id="Layer_1-2"><path d="M90,73.52c0,9.11-7.33,16.48-16.36,16.48H16.37c-9.04,0-16.37-7.38-16.37-16.48V16.49C0,7.39,7.33,0,16.37,0h57.27c9.04,0,16.36,7.39,16.36,16.49v57.02Z" fill="#5b5c64"/><path d="M65.62,16.26H23.71c-6.29,0-11.41,5.37-11.41,11.97s5.01,11.86,11.41,11.86h41.91c6.4,0,11.41-5.21,11.41-11.86s-5.12-11.97-11.41-11.97M65.35,38.42H23.98c-5.47,0-9.91-4.57-9.91-10.2s4.44-10.31,9.91-10.31h41.37c5.47,0,9.92,4.62,9.92,10.31s-4.45,10.2-9.92,10.2M29.53,27.91c.89-.58,1.37-1.55,1.37-2.83,0-1.76-1.21-3.65-3.86-3.65h-4.06c-1.15,0-1.96.82-1.96,2v9.52c0,1.18.79,1.98,1.96,1.98h4.12c2.6,0,4.15-1.49,4.15-3.98,0-1.42-.63-2.54-1.71-3.04M23.83,24.26h2.79c1.02,0,1.46.36,1.46,1.23s-.47,1.26-1.46,1.26h-2.79v-2.48ZM26.81,32.15h-2.97v-2.82h3.01c.72,0,1.57.25,1.57,1.41,0,.96-.51,1.41-1.61,1.41M40.73,23.17c-.44-1.22-1.37-1.92-2.57-1.92s-2.11.7-2.54,1.92l-3.44,9.85c-.25.75.1,1.61.79,1.88.16.07.33.1.51.1.57,0,1.1-.37,1.32-.93l.96-2.88h4.8l.95,2.88c.19.55.71.92,1.31.92.18,0,.36-.04.52-.11.68-.26,1.04-1.13.78-1.85l-3.39-9.85ZM36.61,28.55l1.41-4.24s.04-.11.14-.11c.07,0,.11.05.13.12l1.39,4.23h-3.07ZM63.22,21.44h-2.76c-1.19,0-1.96.76-1.96,1.95v9.56c0,1.17.8,1.98,1.96,1.98h2.76c3.73,0,5.92-2.06,6.17-5.81.03-.47.05-1.21-.02-2.04-.24-3.65-2.43-5.65-6.15-5.65M66.56,29.01c-.13,2.05-1.23,3.08-3.28,3.08h-1.97v-7.81h1.97c2.11,0,3.18,1.05,3.3,3.23.02.5.01,1.05-.02,1.5M55.27,21.36c-.79,0-1.4.65-1.4,1.48v7.91l-4.44-8.18c-.43-.78-1.15-1.18-1.97-1.18-1.26,0-2.14.95-2.14,2.3v9.86c0,.81.65,1.5,1.42,1.5s1.38-.65,1.38-1.5v-8.16l4.58,8.4c.56,1.01,1.42,1.22,2.01,1.22,1.11,0,1.96-.92,1.96-2.13v-10.04c0-.84-.62-1.48-1.4-1.48" fill="#fff"/><rect x="0" y="57.16" width="90" height="15.05" fill="#68bf7e"/></g></svg>