<?xml version="1.0" encoding="UTF-8"?><svg id="Layer_2" xmlns="http://www.w3.org/2000/svg" viewBox="0 0 89.72 33.03"><g id="Layer_1-2"><path d="M73.9,0H15.81C7.1,0,0,7.44,0,16.59s6.95,16.44,15.81,16.44h58.09c8.87,0,15.82-7.22,15.82-16.44S82.63,0,73.9,0M73.53,30.72H16.18c-7.59,0-13.74-6.34-13.74-14.13S8.6,2.3,16.18,2.3h57.35c7.59,0,13.75,6.4,13.75,14.29s-6.17,14.13-13.75,14.13M23.88,16.16c1.24-.81,1.89-2.15,1.89-3.92,0-2.44-1.67-5.05-5.35-5.05h-5.63c-1.6,0-2.72,1.14-2.72,2.77v13.2c0,1.64,1.1,2.75,2.72,2.75h5.71c3.6,0,5.75-2.06,5.75-5.52,0-1.97-.88-3.51-2.37-4.22M15.98,11.09h3.87c1.42,0,2.02.5,2.02,1.7s-.66,1.74-2.02,1.74h-3.87v-3.44ZM20.1,22.03h-4.12v-3.91h4.17c.99,0,2.18.34,2.18,1.95,0,1.33-.71,1.95-2.23,1.95M39.4,9.58c-.6-1.69-1.9-2.66-3.56-2.66s-2.93.97-3.52,2.66l-4.77,13.65c-.35,1.04.14,2.24,1.09,2.6.23.1.46.14.7.14.8,0,1.53-.51,1.83-1.29l1.32-4h6.65l1.32,4c.26.76.98,1.27,1.81,1.27.25,0,.5-.05.73-.15.94-.36,1.44-1.57,1.09-2.57l-4.7-13.65ZM33.69,17.04l1.95-5.87s.06-.15.2-.15c.09,0,.15.07.18.16l1.93,5.86h-4.26ZM70.58,7.18h-3.83c-1.65,0-2.71,1.06-2.71,2.71v13.26c0,1.62,1.11,2.75,2.71,2.75h3.83c5.17,0,8.21-2.86,8.55-8.06.04-.65.07-1.67-.02-2.82-.34-5.06-3.36-7.84-8.53-7.84M75.2,17.68c-.18,2.84-1.71,4.27-4.54,4.27h-2.73v-10.83h2.73c2.92,0,4.41,1.46,4.57,4.47.03.69.02,1.46-.03,2.08M59.55,7.07c-1.09,0-1.93.9-1.93,2.05v10.97l-6.16-11.33c-.59-1.08-1.6-1.64-2.73-1.64-1.75,0-2.97,1.31-2.97,3.18v13.67c0,1.12.91,2.08,1.96,2.08s1.92-.91,1.92-2.08v-11.31l6.35,11.64c.78,1.4,1.97,1.69,2.78,1.69,1.54,0,2.72-1.27,2.72-2.95v-13.92c0-1.16-.86-2.05-1.94-2.05" fill="#21c531"/></g></svg>