<?xml version="1.0" encoding="UTF-8"?><svg id="Layer_2" xmlns="http://www.w3.org/2000/svg" viewBox="0 0 90 90"><g id="Layer_1-2"><path d="M90,73.51c0,9.12-7.33,16.49-16.36,16.49H16.36c-9.03,0-16.36-7.37-16.36-16.49V16.48C0,7.38,7.33,0,16.36,0h57.27c9.03,0,16.36,7.38,16.36,16.48v57.03Z" fill="#30b14a"/><path d="M70.77,8.15H19.22c-6.58,0-11.9,5.36-11.9,11.95v28.34c0,6.59,5.32,11.94,11.9,11.94h17.76l6.06,9.86s.06.12.19.28c.36.61,1.01,1.03,1.77,1.03s1.4-.41,1.75-1.01c.15-.17.21-.3.21-.3l6.05-9.86h17.76c6.57,0,11.9-5.35,11.9-11.94v-28.34c0-6.59-5.33-11.95-11.9-11.95" fill="#fff"/><path d="M24.06,28.92s-2.06,0-3.93,1.82v-7.32h-4.61v19.22h4.66v-1.5s1.1,1.99,3.88,1.99c0,0,6.5-.25,6.5-7.19,0,0-.24-7.02-6.5-7.02M23.04,39.05c-1.64,0-2.96-1.32-2.96-2.96s1.32-2.97,2.96-2.97,2.96,1.32,2.96,2.97-1.32,2.96-2.96,2.96" fill="#f37528"/><path d="M32.04,22.98v4.46s2.1-.1,2.1,3.83v11.37h4.45v-12.43s.2-7.23-6.55-7.23" fill="#f37528"/><path d="M49.46,28.98s-7.62,0-7.62,7.12c0,0-.24,7.03,7.62,7.03,0,0,7.8-.02,7.8-7.03,0,0,.26-7.12-7.8-7.12M49.47,39.05c-1.64,0-2.96-1.32-2.96-2.96s1.32-2.97,2.96-2.97,2.96,1.32,2.96,2.97-1.32,2.96-2.96,2.96" fill="#f37528"/><path d="M69.99,29.43v1.31s-1.33-1.76-3.87-1.76c0,0-6.52-.28-6.52,7.06,0,0-.07,6.85,6.34,6.85,0,0,2.61.1,4.05-1.76v1.08s.33,3.37-2.94,3.37h-1.11v4.08h1.8s6.74.07,6.74-7.2v-13.03h-4.49ZM67.23,39.05c-1.64,0-2.97-1.32-2.97-2.96s1.33-2.97,2.97-2.97,2.96,1.32,2.96,2.97-1.32,2.96-2.96,2.96" fill="#f37528"/></g></svg>