<?xml version="1.0" encoding="UTF-8"?><svg id="Layer_2" xmlns="http://www.w3.org/2000/svg" viewBox="0 0 90 90"><g id="Layer_1-2"><path d="M90,73.51c0,9.12-7.33,16.49-16.36,16.49H16.36c-9.03,0-16.36-7.37-16.36-16.49V16.48C0,7.38,7.33,0,16.36,0h57.27c9.03,0,16.36,7.38,16.36,16.48v57.03Z" fill="#f1f1f1"/><polygon points="67.61 74.13 20.6 74.13 20.6 53.42 25.66 53.42 25.66 69.06 62.55 69.06 62.55 53.42 67.61 53.42 67.61 74.13" fill="#bdbcbc"/><rect x="31.18" y="58.04" width="25.62" height="5.06" fill="#e97d00"/><rect x="42.27" y="38.8" width="5.06" height="25.62" transform="translate(-14.9 84.87) rotate(-78.16)" fill="#e97d00"/><rect x="45.05" y="29.69" width="5.06" height="25.62" transform="translate(-10.91 67.97) rotate(-65.3)" fill="#e97d00"/><rect x="50.36" y="21.43" width="5.06" height="25.62" transform="translate(-7.26 52.96) rotate(-50.21)" fill="#e97d00"/><rect x="57.09" y="14.78" width="5.06" height="25.61" transform="translate(-4.51 41.84) rotate(-37.36)" fill="#e97d00"/></g></svg>