<?xml version="1.0" encoding="UTF-8"?><svg id="Layer_2" xmlns="http://www.w3.org/2000/svg" viewBox="0 0 90 90"><g id="Layer_1-2"><path d="M90,73.51c0,9.12-7.33,16.49-16.36,16.49H16.36c-9.03,0-16.36-7.37-16.36-16.49V16.48C0,7.38,7.33,0,16.36,0h57.27c9.03,0,16.36,7.38,16.36,16.48v57.03Z" fill="#f1f1f1"/><path d="M72.98,24.92v3.64c-1.73-.45-3.34-1.18-4.8-2.13-1.79-1.17-3.34-2.68-4.56-4.44.13.09.25.18.38.26,2.59,1.68,5.67,2.67,8.98,2.67Z" fill="#18e3ea"/><path d="M57.03,12.6h-8.22v47.53c-.21,5.32-4.59,9.59-9.96,9.59-1.67,0-3.24-.41-4.62-1.14-1.79-.94-3.26-2.41-4.19-4.19,1.38.73,2.96,1.15,4.63,1.15,5.37,0,9.75-4.27,9.95-9.6V8.42h11.87c0,1.03.1,2.03.27,3.01.07.4.16.79.27,1.17Z" fill="#18e3ea"/><path d="M37.6,33.95v4.02c-11.46.65-20.58,10.17-20.58,21.79,0,4.94,1.65,9.51,4.45,13.17-5.24-3.97-8.64-10.28-8.64-17.36,0-12.04,9.8-21.83,21.83-21.83,1,0,1.98.08,2.94.21Z" fill="#18e3ea"/><path d="M41.79,38.14v12.11c-.93-.29-1.91-.46-2.94-.46-5.5,0-9.97,4.47-9.97,9.97,0,1.67.42,3.24,1.15,4.63-3.16-1.68-5.33-4.99-5.33-8.82,0-5.5,4.47-9.97,9.96-9.97,1.03,0,2.01.17,2.94.46v-8.09c.41-.03.83-.04,1.25-.04,1,0,1.98.08,2.94.21Z" fill="#ff1a0f"/><path d="M77.17,29.11v11.85c-6.15,0-11.85-1.96-16.5-5.3v24.1c0,12.03-9.79,21.82-21.82,21.82-4.65,0-8.97-1.46-12.51-3.95-1.86-1.3-3.51-2.89-4.87-4.7.22.18.45.35.68.51,3.55,2.49,7.86,3.96,12.51,3.96,12.04,0,21.83-9.79,21.83-21.83v-24.1c4.65,3.34,10.34,5.31,16.49,5.31v-8.22c1.33.36,2.74.55,4.19.55Z" fill="#ff1a0f"/><path d="M63.62,21.99c-3.2-2.22-5.58-5.52-6.59-9.39h3.64c0,1.03.1,2.04.28,3.01.43,2.34,1.36,4.5,2.67,6.38Z" fill="#ff1a0f"/><path d="M72.98,28.56v8.22c-6.15,0-11.84-1.97-16.49-5.31v24.1c0,12.04-9.79,21.83-21.83,21.83-4.65,0-8.96-1.47-12.51-3.96-.23-.16-.46-.33-.68-.51-2.8-3.66-4.45-8.23-4.45-13.17,0-11.62,9.12-21.14,20.58-21.79v8.09c-.93-.29-1.91-.46-2.94-.46-5.49,0-9.96,4.47-9.96,9.97,0,3.83,2.17,7.14,5.33,8.82h0c.93,1.78,2.4,3.25,4.19,4.19,1.38.73,2.95,1.14,4.62,1.14,5.37,0,9.75-4.27,9.95-9.59V12.6h8.23c1.01,3.87,3.39,7.17,6.59,9.39,1.22,1.76,2.77,3.27,4.56,4.44,1.46.95,3.07,1.68,4.8,2.13Z"/></g></svg>