<?xml version="1.0" encoding="UTF-8"?><svg id="Layer_2" xmlns="http://www.w3.org/2000/svg" viewBox="0 0 90 90"><g id="Layer_1-2"><path d="M90,73.51c0,9.12-7.33,16.49-16.36,16.49H16.36c-9.03,0-16.36-7.37-16.36-16.49V16.48C0,7.38,7.33,0,16.36,0h57.27c9.03,0,16.36,7.38,16.36,16.48v57.03Z"/><path d="M75.56,39.7c-6.15,0-11.85-1.97-16.5-5.31v24.1c0,12.04-9.79,21.83-21.83,21.83-4.65,0-8.96-1.47-12.51-3.95-5.63-3.95-9.32-10.49-9.32-17.87,0-12.04,9.79-21.83,21.83-21.83,1,0,1.98.08,2.94.21v12.11c-.93-.29-1.91-.46-2.94-.46-5.5,0-9.97,4.47-9.97,9.97,0,3.83,2.17,7.15,5.35,8.82,1.38.73,2.95,1.14,4.62,1.14,5.37,0,9.75-4.27,9.95-9.59V11.34h11.87c0,1.03.1,2.03.28,3.01.84,4.52,3.52,8.4,7.23,10.82,2.59,1.69,5.67,2.67,8.98,2.67v11.86h0Z" fill="#fff"/></g></svg>