<?xml version="1.0" encoding="UTF-8"?><svg id="Layer_2" xmlns="http://www.w3.org/2000/svg" viewBox="0 0 90 90"><g id="Layer_1-2"><path d="M90,73.51c0,9.11-7.32,16.49-16.36,16.49H16.36c-9.03,0-16.36-7.37-16.36-16.49V16.49C0,7.38,7.33,0,16.36,0h57.28c9.04,0,16.36,7.38,16.36,16.49v57.03Z" fill="#f1f1f1"/><path d="M33.77,28.11c0,4.04-3.28,7.32-7.33,7.32s-7.32-3.28-7.32-7.32,3.28-7.33,7.32-7.33,7.33,3.28,7.33,7.33" fill="#f07423"/><path d="M52.32,28.11c0,4.04-3.28,7.32-7.33,7.32s-7.32-3.28-7.32-7.32,3.28-7.33,7.32-7.33,7.33,3.28,7.33,7.33" fill="#f07423"/><path d="M52.32,45.62c0,4.05-3.28,7.33-7.33,7.33s-7.32-3.28-7.32-7.33,3.28-7.33,7.32-7.33,7.33,3.28,7.33,7.33" fill="#f07423"/><path d="M52.32,63.13c0,4.05-3.28,7.32-7.33,7.32s-7.32-3.28-7.32-7.32,3.28-7.33,7.32-7.33,7.33,3.28,7.33,7.33" fill="#f07423"/><path d="M70.88,28.11c0,4.04-3.28,7.32-7.32,7.32s-7.33-3.28-7.33-7.32,3.28-7.33,7.33-7.33,7.32,3.28,7.32,7.33" fill="#f07423"/></g></svg>