<?xml version="1.0" encoding="UTF-8"?><svg id="Layer_2" xmlns="http://www.w3.org/2000/svg" viewBox="0 0 90 90"><g id="Layer_1-2"><path d="M90,73.51c0,9.12-7.33,16.49-16.36,16.49H16.36c-9.03,0-16.36-7.37-16.36-16.49V16.48C0,7.38,7.33,0,16.36,0h57.27c9.03,0,16.36,7.38,16.36,16.48v57.03Z" fill="#f1f1f1"/><path d="M52.03,40.86l21.52-25.59h-11.13l-15.65,18.61-14.05-18.61H12.42l23.65,31.34-23.65,28.13h11.13l17.78-21.15,15.96,21.15h20.3l-25.56-33.87ZM23.71,20.85h5.83l35.89,47.97h-5.83L23.71,20.85Z"/></g></svg>