<?xml version="1.0" encoding="UTF-8"?><svg id="Layer_2" xmlns="http://www.w3.org/2000/svg" viewBox="0 0 90 90"><g id="Layer_1-2"><path d="M90,73.51c0,9.11-7.32,16.49-16.36,16.49H16.36c-9.04,0-16.36-7.38-16.36-16.49V16.49C0,7.39,7.33,0,16.36,0h57.28c9.04,0,16.36,7.39,16.36,16.49v57.02Z" fill="#28a8e0"/><path d="M59.47,58.01c-5.17-.41-10.39.05-15.6-.41-2.49-.27-4.54-2.49-4.99-4.89-.31-2.5-.18-5.04-.27-7.58,6.94-.09,13.88.32,20.77-.23,3.36-.55,5.94-4.44,4.95-7.76-.32-2.63-2.68-4.67-5.22-5.08-6.76-.32-13.56-.05-20.31-.09-.05-2.68-.05-5.4-.28-8.08-.5-3.39-4.4-5.76-7.66-4.8-3.58.54-5.85,4.45-5.31,7.89,0,8.3-.18,16.64.09,24.94-.04,8.12,5.82,15.79,13.56,18.15,5.13,1.59,10.57.86,15.83.95,2.86,0,6.49.09,8.12-2.81,3.04-3.36.82-9.53-3.67-10.21" fill="#fff" fill-rule="evenodd"/></g></svg>