<?xml version="1.0" encoding="UTF-8"?><svg id="Layer_2" xmlns="http://www.w3.org/2000/svg" viewBox="0 0 90 90"><g id="Layer_1-2"><path d="M90,73.51c0,9.11-7.32,16.49-16.37,16.49H16.36c-9.04,0-16.36-7.38-16.36-16.49V16.49C0,7.39,7.32,0,16.36,0h57.28c9.04,0,16.37,7.39,16.37,16.49v57.02Z" fill="#28a8e0"/><path d="M74.56,28.94c-2.18.96-4.52,1.62-6.97,1.92,2.51-1.5,4.43-3.89,5.33-6.71-2.34,1.39-4.94,2.39-7.7,2.94-2.22-2.36-5.36-3.84-8.85-3.84-6.7,0-12.14,5.44-12.14,12.13,0,.95.11,1.88.31,2.77-10.08-.51-19.01-5.34-25.01-12.67-1.04,1.78-1.63,3.87-1.63,6.09,0,4.21,2.14,7.92,5.39,10.1-1.98-.07-3.85-.61-5.49-1.52v.15c0,5.88,4.19,10.78,9.73,11.9-1.01.28-2.09.42-3.19.42-.79,0-1.54-.07-2.29-.21,1.55,4.82,6.03,8.33,11.34,8.43-4.16,3.26-9.38,5.19-15.07,5.19-.97,0-1.94-.06-2.89-.16,5.37,3.44,11.75,5.45,18.6,5.45,22.32,0,34.51-18.48,34.51-34.51,0-.52,0-1.05-.04-1.57,2.37-1.72,4.43-3.85,6.06-6.29" fill="#fff"/></g></svg>