<?xml version="1.0" encoding="UTF-8"?><svg id="Layer_2" xmlns="http://www.w3.org/2000/svg" viewBox="0 0 90 90"><g id="Layer_1-2"><path d="M90,73.52c0,9.11-7.32,16.48-16.36,16.48H16.37c-9.04,0-16.37-7.38-16.37-16.48V16.48C0,7.39,7.32,0,16.37,0h57.27c9.04,0,16.36,7.39,16.36,16.48v57.03Z" fill="#d1262b"/><g id="Youtube"><path d="M70.33,27.86c-2.14-2.26-4.54-2.27-5.64-2.4-7.87-.57-19.68-.57-19.68-.57h-.02s-11.81,0-19.68.57c-1.1.13-3.5.14-5.64,2.4-1.69,1.72-2.24,5.62-2.24,5.62,0,0-.56,4.59-.56,9.17v4.3c0,4.59.56,9.17.56,9.17,0,0,.55,3.9,2.24,5.62,2.14,2.26,4.95,2.19,6.2,2.42,4.5.44,19.13.57,19.13.57,0,0,11.82-.02,19.69-.59,1.1-.13,3.5-.14,5.64-2.4,1.69-1.72,2.24-5.62,2.24-5.62,0,0,.56-4.58.56-9.17v-4.3c0-4.58-.56-9.17-.56-9.17,0,0-.55-3.9-2.24-5.62ZM39.19,52.16v-15.92s15.2,7.99,15.2,7.99l-15.2,7.93Z" fill="#fff"/></g></g></svg>