<?xml version="1.0" encoding="UTF-8"?><svg id="Layer_2" xmlns="http://www.w3.org/2000/svg" viewBox="0 0 90 90"><g id="Layer_1-2"><path d="M90,73.52c0,9.11-7.32,16.48-16.36,16.48H16.36c-9.03,0-16.36-7.38-16.36-16.48V16.49C0,7.39,7.33,0,16.36,0h57.28c9.04,0,16.36,7.39,16.36,16.49v57.02Z" fill="#f2f2f2"/><path d="M37.56,82.41c-2.41-.04-5.28-.11-6.36-.15-7.26-.26-12.24-.54-13.24-.73-1.42-.29-3.01-1.25-3.92-2.38-1.48-1.81-2.27-4-2.65-7.39-.89-7.86-.87-17.04.05-24.63.4-3.32,1.41-5.73,3.09-7.41.97-.95,1.89-1.48,3.12-1.8,2.67-.68,23.53-1.23,36.22-.95,7.33.17,15.25.5,17.35.74,2.73.31,4.64,1.72,5.96,4.4,1,2.02,1.32,3.58,1.72,8.43.33,3.84.4,6.23.34,10.65-.07,5.3-.41,9.96-.91,12.58-.53,2.78-1.79,5.14-3.42,6.41-1.25.99-2.6,1.43-4.7,1.55-.63.04-1.42.09-1.76.12-1.21.09-7.72.36-11.28.45-5.3.15-14.57.2-19.62.12" fill="#d1262b"/><path d="M38.27,72.17c-1.26,1.21-2.36,2.22-3.93,2.55-2,.41-3.42-.49-3.66-2.52-.14-1.3-.12-2.62-.12-3.92,0-5.07.01-10.14-.01-15.22,0-.72.14-1.05.94-.97,1.05.12,2.47-.45,3.08.24.52.6.18,1.98.18,3.02.02,4.57,0,9.14,0,13.71,0,.59-.07,1.26.61,1.58.63.29,1.16-.06,1.67-.4.81-.52,1.21-1.13,1.21-2.2-.07-5.01,0-10.02,0-15.01,0-.68.15-.99.89-.93.73.07,1.48.07,2.22,0,.86-.08,1.13.17,1.13,1.09.05,6.15.04,12.29-.04,18.44,0,.73-.03,1.48,0,2.21.02.52-.16.72-.7.7-.9-.03-1.81-.04-2.72,0-.65.03-.82-.24-.77-.82.04-.43,0-.87,0-1.55" fill="#fff" fill-rule="evenodd"/><path d="M21.05,61.5c0-4-.02-7.99.02-12,0-.69-.17-.94-.89-.89-1.1.05-2.21-.01-3.33.02-.53.01-.69-.18-.68-.7.04-1.04.03-2.08,0-3.13-.01-.49.11-.73.66-.73,4.4.02,8.8,0,13.2-.03.55,0,.68.21.66.71-.03,1.04-.04,2.09,0,3.13.01.58-.17.77-.74.76-1.04-.04-2.08.03-3.12-.03-.79-.05-1.01.18-1,.99.03,7.12.01,14.24,0,21.36,0,.91-.06,1.82,0,2.72.05.73-.23.92-.91.89-.98-.06-1.95-.06-2.92,0-.76.04-.96-.22-.96-.97.03-4.03.02-8.06.02-12.09h-.02Z" fill="#fff" fill-rule="evenodd"/><path d="M57.99,54.3c-.73-1.96-2.51-2.89-4.54-2.38-.97.24-1.75.81-2.42,1.55-.22.05-.28.23-.28-.03-.03-2.56-.01-5.89-.02-8.44,0-.35.15-.76-.31-.96-1.08,0-2.15.03-3.23-.01-.61-.03-.81.15-.8.78.04,1.64.02,3.28.02,4.93,0,7.93.01,15.85,0,23.77,0,.76.14,1.11.98,1.04.86-.08,1.75-.04,2.62,0,.57.02.81-.17.75-.75-.01-.16-.09-.41.23-.51.16.13.33.28.51.43,2.91,2.33,6.32,1.07,6.93-2.57.07-.44.08-.87.08-1.31.01-4.16.01-8.33.01-12.49,0-1.05-.17-2.08-.54-3.05M53.21,71.1c-.77.32-1.42-.03-2.04-.5-.38-.3-.39-.65-.38-1.07,0-2.08,0-4.16,0-6.24h.02c0-2.08.04-4.16-.02-6.25-.03-1.03.59-1.37,1.37-1.53.83-.18,1.45.22,1.72,1.04.12.37.16.79.16,1.18.02,3.87.02,7.73.02,11.59,0,.72-.06,1.46-.84,1.78" fill="#fff" fill-rule="evenodd"/><path d="M73.22,66.42c-1.05.02-2.09.04-3.13,0-.52-.01-.71.18-.71.69,0,.97.09,1.96-.13,2.91-.14.55-.45.86-.99,1.02-1.21.36-2.14-.2-2.24-1.55-.12-1.61-.04-3.23-.12-4.83-.03-.65.24-.79.82-.77,1.05.04,2.09,0,3.13,0,1.1,0,2.22-.01,3.32,0,.46,0,.67-.12.65-.63-.03-2.04.06-4.1-.06-6.14-.16-2.91-1.72-4.86-4.14-5.43-4.37-1.04-8.03,1.71-8.13,6.21-.08,3.71-.01,7.41,0,11.1,0,.77.19,1.53.43,2.27.83,2.51,3.04,3.98,5.92,3.92,2.87-.04,4.88-1.53,5.65-4.13.4-1.35.28-2.73.33-4.11.01-.47-.22-.55-.61-.55M65.88,58.64c.01-.57.04-1.14.12-1.7.15-.93.73-1.4,1.68-1.4s1.45.49,1.63,1.34c.21,1,.07,2.01.09,3.02,0,.38-.21.44-.52.43-.44,0-.86,0-1.31,0-1.71,0-1.72,0-1.7-1.69" fill="#fff" fill-rule="evenodd"/><path d="M33.59,17.1c.75-3.1,1.51-6.12,2.2-9.16.16-.71.44-.93,1.14-.87.77.06,1.56.05,2.32,0,.76-.06.91.15.68.89-.92,2.91-1.59,5.91-2.7,8.75-1.61,4.13-1.92,8.37-1.71,12.73.05.9,0,1.82.02,2.72.02.55-.15.79-.74.75-.8-.04-1.61-.05-2.42,0-.7.05-.92-.19-.91-.89.04-2.49-.03-4.98.04-7.46.05-1.41-.26-2.72-.68-4.04-1.31-4.22-2.58-8.47-3.9-12.7-.19-.62-.06-.78.55-.75.84.03,1.69.06,2.52,0,.69-.05.91.25,1.06.87.7,2.87,1.45,5.73,2.17,8.58.05.18.03.41.35.59" fill="#231f20" fill-rule="evenodd"/><path d="M59.45,31.01c-.67.65-1.21,1.18-1.88,1.56-2.5,1.43-4.48.35-4.53-2.5-.04-2.49-.02-4.98-.02-7.46s.05-5.17,0-7.76c-.01-.83.26-1.05,1.02-.98.57.07,1.15.06,1.72,0,.72-.06.89.22.88.92-.03,4.36-.01,8.73-.01,13.09,0,.37,0,.75.06,1.11.11.56.5.75,1.05.65.96-.18,1.76-1.14,1.76-2.13,0-4.24.04-8.47,0-12.7,0-.76.22-.95.96-.95,2.67.02,2.67,0,2.67,2.65,0,5.06-.04,10.14.02,15.2.01,1.02-.31,1.32-1.24,1.17-.2-.03-.4,0-.61,0q-1.73,0-1.84-1.88" fill="#231f20" fill-rule="evenodd"/><path d="M50.08,17.63c-.16-2.64-2.42-4.4-5.15-4.29-3.16.14-5.06,1.92-5.09,4.79-.02,1.68,0,3.35,0,5.03h.02c0,.94,0,1.88,0,2.83,0,.94-.03,1.88.04,2.81.18,2.65,1.85,4.32,4.47,4.57,3.17.29,5.51-1.31,5.69-4.18.25-3.84.28-7.71.03-11.56M46.42,28.3c0,1.05-.59,1.69-1.45,1.69s-1.38-.6-1.38-1.63c-.01-3.39,0-6.78.03-10.17,0-.85.6-1.42,1.37-1.42.83,0,1.42.59,1.43,1.48.01,1.71,0,3.42,0,5.13h0c0,1.64,0,3.29,0,4.93" fill="#231f20" fill-rule="evenodd"/></g></svg>