<svg width="272" height="272" viewBox="0 0 272 272" fill="none" xmlns="http://www.w3.org/2000/svg">
<rect x="1" y="1" width="78" height="78" fill="#5452FF" stroke="black" stroke-width="2"/>
<rect x="1" y="97" width="78" height="78" fill="#FFC600" stroke="black" stroke-width="2"/>
<rect x="1" y="193" width="78" height="78" fill="#F24D1D" stroke="black" stroke-width="2"/>
<rect x="97" y="1" width="78" height="78" fill="#F24D1D" stroke="black" stroke-width="2"/>
<rect x="97" y="97" width="78" height="78" fill="#2C2C2C" stroke="black" stroke-width="2"/>
<rect x="97" y="193" width="78" height="78" fill="#20A65A" stroke="black" stroke-width="2"/>
<rect x="193" y="1" width="78" height="78" fill="#5452FF" stroke="black" stroke-width="2"/>
<rect x="193" y="97" width="78" height="78" fill="#FFC600" stroke="black" stroke-width="2"/>
<path d="M251.983 131.497L237.498 136.911L237.071 137.072L236.912 137.498L231.496 151.983L218.394 118.394L251.983 131.497Z" fill="#20A65A" stroke="black" stroke-width="2"/>
<rect x="193" y="193" width="78" height="78" fill="#F24D1D" stroke="black" stroke-width="2"/>
<path d="M128.518 113H136.036V128.036H128.518C124.366 128.036 121 124.669 121 120.518C121 116.366 124.366 113 128.518 113Z" stroke="white" stroke-width="2"/>
<path d="M128.518 128.482H136.036V143.518H128.518C124.366 143.518 121 140.152 121 136C121 131.848 124.366 128.482 128.518 128.482Z" stroke="white" stroke-width="2"/>
<mask id="path-13-inside-1_1088_13886" fill="white">
<path d="M143.56 127.403C148.221 127.403 152 131.181 152 135.842C152 135.895 151.997 135.947 151.996 136C151.997 136.052 152 136.104 152 136.157C152 140.818 148.221 144.596 143.56 144.596C138.899 144.596 135.121 140.818 135.121 136.157C135.121 136.104 135.123 136.052 135.124 136C135.123 135.947 135.121 135.895 135.121 135.842V127.403H143.56Z"/>
</mask>
<path d="M143.56 127.403V125.403V127.403ZM152 135.842H154V135.842L152 135.842ZM151.996 136L149.996 135.963L149.996 136L149.996 136.036L151.996 136ZM152 136.157L154 136.157V136.157L152 136.157ZM143.56 144.596V146.596H143.56L143.56 144.596ZM135.121 136.157L133.121 136.157V136.157L135.121 136.157ZM135.124 136L137.124 136.036L137.124 136L137.124 135.963L135.124 136ZM135.121 135.842H137.121H135.121ZM135.121 127.403V125.403H133.121V127.403H135.121ZM143.56 127.403V129.403C147.117 129.403 150 132.286 150 135.842L152 135.842L154 135.842C154 130.077 149.326 125.403 143.56 125.403V127.403ZM152 135.842H150C150 135.834 150 135.833 149.999 135.856C149.999 135.861 149.998 135.884 149.998 135.898C149.997 135.915 149.997 135.938 149.996 135.963L151.996 136L153.996 136.036C153.996 136.029 153.996 136.025 153.997 135.987C153.998 135.957 154 135.903 154 135.842H152ZM151.996 136L149.996 136.036C149.997 136.062 149.997 136.084 149.998 136.102C149.998 136.115 149.999 136.138 149.999 136.144C150 136.166 150 136.165 150 136.157L152 136.157L154 136.157C154 136.096 153.998 136.042 153.997 136.013C153.996 135.974 153.996 135.97 153.996 135.963L151.996 136ZM152 136.157L150 136.157C150 139.713 147.117 142.596 143.56 142.596L143.56 144.596L143.56 146.596C149.326 146.596 154 141.922 154 136.157L152 136.157ZM143.56 144.596V142.596C140.004 142.596 137.121 139.713 137.121 136.157L135.121 136.157L133.121 136.157C133.121 141.922 137.795 146.596 143.56 146.596V144.596ZM135.121 136.157L137.121 136.157C137.121 136.125 137.122 136.144 137.124 136.036L135.124 136L133.124 135.963C133.124 135.983 133.123 135.992 133.123 136.032C133.122 136.062 133.121 136.107 133.121 136.157L135.121 136.157ZM135.124 136L137.124 135.963C137.122 135.855 137.121 135.874 137.121 135.842H135.121H133.121C133.121 135.892 133.122 135.937 133.123 135.968C133.123 136.007 133.124 136.016 133.124 136.036L135.124 136ZM135.121 135.842H137.121V127.403H135.121H133.121V135.842H135.121ZM135.121 127.403V129.403H143.56V127.403V125.403H135.121V127.403Z" fill="white" mask="url(#path-13-inside-1_1088_13886)"/>
<mask id="path-15-inside-2_1088_13886" fill="white">
<path d="M143.56 127.403C148.221 127.403 152 131.181 152 135.842C152 135.895 151.997 135.947 151.996 136C151.997 136.052 152 136.104 152 136.157C152 140.818 148.221 144.596 143.56 144.596C138.899 144.596 135.121 140.818 135.121 136.157C135.121 136.104 135.123 136.052 135.124 136C135.123 135.947 135.121 135.895 135.121 135.842C135.121 131.182 138.899 127.403 143.56 127.403Z"/>
</mask>
<path d="M143.56 127.403V125.403H143.56L143.56 127.403ZM152 135.842H154V135.842L152 135.842ZM151.996 136L149.996 135.963L149.996 136L149.996 136.036L151.996 136ZM152 136.157L154 136.157V136.157L152 136.157ZM143.56 144.596V146.596H143.56L143.56 144.596ZM135.121 136.157L133.121 136.157V136.157L135.121 136.157ZM135.124 136L137.124 136.036L137.124 136L137.124 135.963L135.124 136ZM135.121 135.842L133.121 135.842V135.842H135.121ZM143.56 127.403V129.403C147.117 129.403 150 132.286 150 135.842L152 135.842L154 135.842C154 130.077 149.326 125.403 143.56 125.403V127.403ZM152 135.842H150C150 135.834 150 135.833 149.999 135.856C149.999 135.861 149.998 135.884 149.998 135.898C149.997 135.915 149.997 135.938 149.996 135.963L151.996 136L153.996 136.036C153.996 136.029 153.996 136.025 153.997 135.987C153.998 135.957 154 135.903 154 135.842H152ZM151.996 136L149.996 136.036C149.997 136.062 149.997 136.084 149.998 136.102C149.998 136.115 149.999 136.138 149.999 136.144C150 136.166 150 136.165 150 136.157L152 136.157L154 136.157C154 136.096 153.998 136.042 153.997 136.013C153.996 135.974 153.996 135.97 153.996 135.963L151.996 136ZM152 136.157L150 136.157C150 139.713 147.117 142.596 143.56 142.596L143.56 144.596L143.56 146.596C149.326 146.596 154 141.922 154 136.157L152 136.157ZM143.56 144.596V142.596C140.004 142.596 137.121 139.713 137.121 136.157L135.121 136.157L133.121 136.157C133.121 141.922 137.795 146.596 143.56 146.596V144.596ZM135.121 136.157L137.121 136.157C137.121 136.125 137.122 136.144 137.124 136.036L135.124 136L133.124 135.963C133.124 135.983 133.123 135.992 133.123 136.032C133.122 136.062 133.121 136.107 133.121 136.157L135.121 136.157ZM135.124 136L137.124 135.963C137.122 135.855 137.121 135.874 137.121 135.842H135.121H133.121C133.121 135.892 133.122 135.937 133.123 135.968C133.123 136.007 133.124 136.016 133.124 136.036L135.124 136ZM135.121 135.842L137.121 135.842C137.121 132.286 140.004 129.403 143.56 129.403L143.56 127.403L143.56 125.403C137.795 125.403 133.121 130.077 133.121 135.842L135.121 135.842Z" fill="white" mask="url(#path-15-inside-2_1088_13886)"/>
<path d="M143.482 128.115L135.964 128.115L135.964 113.079L143.482 113.079C147.634 113.079 151 116.445 151 120.597C151 124.749 147.634 128.115 143.482 128.115Z" stroke="white" stroke-width="2"/>
<path d="M128.518 143.964H136.036V151.482C136.036 155.634 132.67 159 128.518 159C124.366 159 121 155.634 121 151.482C121 147.33 124.366 143.964 128.518 143.964Z" stroke="white" stroke-width="2"/>
<path d="M136.352 132.418L136 128.478L139.868 129.015L136.352 132.418Z" fill="white"/>
<mask id="path-20-inside-3_1088_13886" fill="white">
<path d="M240.5 205C248.508 205 255 211.492 255 219.5C255 222.675 253.978 225.612 252.247 228C253.978 230.388 255 233.325 255 236.5C255 244.508 248.508 251 240.5 251C237.099 251 233.973 249.828 231.5 247.868C229.027 249.828 225.901 251 222.5 251C214.492 251 208 244.508 208 236.5C208 233.325 209.021 230.388 210.752 228C209.021 225.612 208 222.675 208 219.5C208 211.492 214.492 205 222.5 205C225.9 205 229.027 206.171 231.5 208.131C233.973 206.171 237.1 205 240.5 205Z"/>
</mask>
<path d="M240.5 205C248.508 205 255 211.492 255 219.5C255 222.675 253.978 225.612 252.247 228C253.978 230.388 255 233.325 255 236.5C255 244.508 248.508 251 240.5 251C237.099 251 233.973 249.828 231.5 247.868C229.027 249.828 225.901 251 222.5 251C214.492 251 208 244.508 208 236.5C208 233.325 209.021 230.388 210.752 228C209.021 225.612 208 222.675 208 219.5C208 211.492 214.492 205 222.5 205C225.9 205 229.027 206.171 231.5 208.131C233.973 206.171 237.1 205 240.5 205Z" fill="#FFC600"/>
<path d="M252.247 228L250.628 226.826L249.777 228L250.628 229.174L252.247 228ZM231.5 247.868L232.742 246.301L231.5 245.316L230.258 246.301L231.5 247.868ZM210.752 228L212.371 229.174L213.222 228L212.371 226.826L210.752 228ZM231.5 208.131L230.258 209.698L231.5 210.683L232.742 209.698L231.5 208.131ZM240.5 205V207C247.404 207 253 212.596 253 219.5H255H257C257 210.387 249.613 203 240.5 203V205ZM255 219.5H253C253 222.239 252.12 224.767 250.628 226.826L252.247 228L253.866 229.174C255.836 226.456 257 223.111 257 219.5H255ZM252.247 228L250.628 229.174C252.12 231.233 253 233.761 253 236.5H255H257C257 232.889 255.836 229.544 253.866 226.826L252.247 228ZM255 236.5H253C253 243.404 247.404 249 240.5 249V251V253C249.613 253 257 245.613 257 236.5H255ZM240.5 251V249C237.567 249 234.875 247.991 232.742 246.301L231.5 247.868L230.258 249.435C233.071 251.666 236.632 253 240.5 253V251ZM231.5 247.868L230.258 246.301C228.125 247.991 225.433 249 222.5 249V251V253C226.368 253 229.929 251.666 232.742 249.435L231.5 247.868ZM222.5 251V249C215.596 249 210 243.404 210 236.5H208H206C206 245.613 213.387 253 222.5 253V251ZM208 236.5H210C210 233.761 210.879 231.232 212.371 229.174L210.752 228L209.133 226.826C207.163 229.544 206 232.889 206 236.5H208ZM210.752 228L212.371 226.826C210.879 224.768 210 222.239 210 219.5H208H206C206 223.111 207.163 226.456 209.133 229.174L210.752 228ZM208 219.5H210C210 212.596 215.596 207 222.5 207V205V203C213.387 203 206 210.387 206 219.5H208ZM222.5 205V207C225.433 207 228.126 208.008 230.258 209.698L231.5 208.131L232.742 206.564C229.929 204.333 226.368 203 222.5 203V205ZM231.5 208.131L232.742 209.698C234.874 208.008 237.567 207 240.5 207V205V203C236.632 203 233.071 204.333 230.258 206.564L231.5 208.131Z" fill="black" mask="url(#path-20-inside-3_1088_13886)"/>
<circle cx="136" cy="232" r="24" fill="#FFC600"/>
<circle cx="136" cy="232" r="19" fill="black"/>
<path d="M28 117H79V175H21V124C21 120.134 24.134 117 28 117Z" fill="#5452FF" stroke="black" stroke-width="2"/>
<path d="M28 117H79V135H21V124C21 120.134 24.134 117 28 117Z" fill="#F24D1D" stroke="black" stroke-width="2"/>
<path d="M40 16L48.323 28.5443L62.8254 32.5836L53.467 44.3757L54.1068 59.4164L40 54.16L25.8932 59.4164L26.533 44.3757L17.1746 32.5836L31.677 28.5443L40 16Z" fill="#FFC600"/>
<path d="M136 18C148.15 18 158 27.8497 158 40C158 52.1503 148.15 62 136 62H114V40C114 27.8497 123.85 18 136 18Z" fill="#20A65A" stroke="black" stroke-width="2"/>
<rect x="210" y="14" width="44" height="44" rx="8" fill="#FFC600"/>
<line x1="227.04" y1="25" x2="227.04" y2="46" stroke="black" stroke-width="1.68"/>
<line x1="238.8" y1="25" x2="238.8" y2="46" stroke="black" stroke-width="1.68"/>
<line x1="243" y1="30.04" x2="222" y2="30.04" stroke="black" stroke-width="1.68"/>
<line x1="243" y1="41.8" x2="222" y2="41.8" stroke="black" stroke-width="1.68"/>
<mask id="path-33-inside-4_1088_13886" fill="white">
<path d="M39.9971 216C51.0671 216 60.6105 222.551 64.9941 232C60.6105 241.449 51.0671 248 39.9971 248C28.9271 248 19.3836 241.449 15 232C19.3836 222.551 28.9271 216 39.9971 216Z"/>
</mask>
<path d="M39.9971 216C51.0671 216 60.6105 222.551 64.9941 232C60.6105 241.449 51.0671 248 39.9971 248C28.9271 248 19.3836 241.449 15 232C19.3836 222.551 28.9271 216 39.9971 216Z" fill="#20A65A"/>
<path d="M39.9971 216V214H39.9971L39.9971 216ZM64.9941 232L66.8084 232.842L67.1989 232L66.8084 231.158L64.9941 232ZM39.9971 248L39.9971 250H39.9971V248ZM15 232L13.1857 231.158L12.7953 232L13.1857 232.842L15 232ZM39.9971 216V218C50.2564 218 59.1102 224.07 63.1799 232.842L64.9941 232L66.8084 231.158C62.1107 221.032 51.8777 214 39.9971 214V216ZM64.9941 232L63.1799 231.158C59.1102 239.93 50.2564 246 39.9971 246V248V250C51.8777 250 62.1107 242.968 66.8084 232.842L64.9941 232ZM39.9971 248L39.9971 246C29.7378 246 20.8839 239.93 16.8143 231.158L15 232L13.1857 232.842C17.8834 242.968 28.1165 250 39.9971 250L39.9971 248ZM15 232L16.8143 232.842C20.8839 224.07 29.7378 218 39.9971 218L39.9971 216L39.9971 214C28.1165 214 17.8834 221.032 13.1857 231.158L15 232Z" fill="black" mask="url(#path-33-inside-4_1088_13886)"/>
<circle cx="39.5" cy="231.5" r="7.5" fill="black"/>
</svg>
